<?xml version="1.0" encoding="UTF-8"?>
<svg id="_圖層_1" data-name="圖層_1" xmlns="http://www.w3.org/2000/svg" version="1.1" xmlns:xlink="http://www.w3.org/1999/xlink" viewBox="0 0 960 480">
  <!-- Generator: Adobe Illustrator 29.0.0, SVG Export Plug-In . SVG Version: 2.1.0 Build 186)  -->
  <defs>
    <clipPath id="clippath">
      <polygon points="682.01 419.24 881.78 419.24 881.78 52.36 682.01 52.36 682.01 419.24 682.01 419.24" clip-rule="evenodd" fill="none"/>
    </clipPath>
    <clipPath id="clippath-1">
      <polygon points="766.03 257.95 684.79 257.95 684.79 92.88 766.03 92.88 766.03 257.95 766.03 257.95" clip-path="url(#clippath)" clip-rule="evenodd" fill="none"/>
    </clipPath>
    <clipPath id="clippath-2">
      <polygon points="766.03 92.88 684.79 92.88 684.79 257.95 766.03 257.95 766.03 92.88 766.03 92.88" fill="none"/>
    </clipPath>
    <clipPath id="clippath-3">
      <polygon points="682.01 419.24 881.78 419.24 881.78 52.36 682.01 52.36 682.01 419.24 682.01 419.24" clip-rule="evenodd" fill="none"/>
    </clipPath>
    <clipPath id="clippath-4">
      <polygon points="682.01 419.24 881.78 419.24 881.78 52.36 682.01 52.36 682.01 419.24 682.01 419.24" clip-rule="evenodd" fill="none"/>
    </clipPath>
    <clipPath id="clippath-5">
      <polygon points="764.56 254.14 845.8 254.14 845.8 419.24 764.56 419.24 764.56 254.14 764.56 254.14" clip-path="url(#clippath-4)" clip-rule="evenodd" fill="none"/>
    </clipPath>
    <clipPath id="clippath-6">
      <polygon points="764.56 419.24 845.8 419.24 845.8 254.14 764.56 254.14 764.56 419.24 764.56 419.24" fill="none"/>
    </clipPath>
    <clipPath id="clippath-7">
      <polygon points="682.01 419.24 881.78 419.24 881.78 52.36 682.01 52.36 682.01 419.24 682.01 419.24" clip-rule="evenodd" fill="none"/>
    </clipPath>
    <clipPath id="clippath-8">
      <polygon points="682.01 419.24 881.78 419.24 881.78 52.36 682.01 52.36 682.01 419.24 682.01 419.24" clip-rule="evenodd" fill="none"/>
    </clipPath>
    <clipPath id="clippath-9">
      <polygon points="830.16 220.18 881.76 282.91 754.27 387.79 702.67 325.05 830.16 220.18 830.16 220.18" clip-path="url(#clippath-8)" clip-rule="evenodd" fill="none"/>
    </clipPath>
    <clipPath id="clippath-10">
      <polygon points="702.67 325.05 754.27 387.79 881.76 282.91 830.16 220.18 702.67 325.05 702.67 325.05" fill="none"/>
    </clipPath>
    <clipPath id="clippath-11">
      <polygon points="682.01 419.24 881.78 419.24 881.78 52.36 682.01 52.36 682.01 419.24 682.01 419.24" clip-rule="evenodd" fill="none"/>
    </clipPath>
    <clipPath id="clippath-12">
      <polygon points="682.01 419.24 881.78 419.24 881.78 52.36 682.01 52.36 682.01 419.24 682.01 419.24" clip-rule="evenodd" fill="none"/>
    </clipPath>
    <clipPath id="clippath-13">
      <polygon points="847.11 52.36 847.11 133.61 682.01 133.61 682.01 52.36 847.11 52.36 847.11 52.36" clip-path="url(#clippath-12)" clip-rule="evenodd" fill="none"/>
    </clipPath>
    <clipPath id="clippath-14">
      <polygon points="682.01 52.36 682.01 133.61 847.11 133.61 847.11 52.36 682.01 52.36 682.01 52.36" fill="none"/>
    </clipPath>
  </defs>
  <polygon points="0 0 960 0 960 480 0 480 0 0 0 0" fill="#f9f6ef" fill-rule="evenodd"/>
  <text/>
  <g>
    <g>
      <path d="M60.1,340.36c-.52-.52-.78-1.13-.78-1.85v-24.36c0-.52.18-.97.55-1.35.37-.38.81-.57,1.33-.57s.97.19,1.35.57c.38.38.57.83.57,1.35v22.68c0,.33.16.49.49.49h12.88c.52,0,.97.19,1.35.57.38.38.57.83.57,1.35s-.19.96-.57,1.33c-.38.37-.83.55-1.35.55h-14.56c-.71,0-1.33-.26-1.85-.78Z" fill="#2b2b2b" opacity=".62"/>
      <path d="M83.75,338.68c-1.87-1.91-2.81-4.59-2.81-8.04,0-1.86.35-3.65,1.07-5.37.74-1.72,1.86-3.08,3.36-4.06,1.5-.98,3.31-1.48,5.41-1.48s3.79.47,5.29,1.39c1.42.93,2.53,2.18,3.32,3.75.79,1.57,1.19,3.32,1.19,5.23,0,.52-.18.96-.53,1.33-.36.37-.82.55-1.39.55h-13.86c.25,1.94.98,3.42,2.19,4.45,1.22,1.03,2.86,1.54,4.94,1.54,1.09,0,2.07-.1,2.93-.31s1.73-.53,2.6-.96c.19-.11.44-.16.74-.16.44,0,.83.16,1.17.47.34.31.51.7.51,1.17,0,.63-.37,1.15-1.11,1.56-1.15.63-2.24,1.09-3.28,1.37-1.04.29-2.34.43-3.9.43-3.36,0-5.98-.96-7.85-2.87ZM96.77,328.34c-.11-1.09-.44-2.01-.98-2.75-.6-.88-1.35-1.53-2.24-1.97-.89-.44-1.81-.66-2.77-.66-.88,0-1.79.21-2.75.62-.96.47-1.72,1.16-2.28,2.07-.56.92-.88,1.99-.96,3.22h11.48c.35,0,.52-.18.49-.53Z" fill="#2b2b2b" opacity=".62"/>
      <path d="M111.52,340.91c-.42-.29-.73-.66-.92-1.13l-7.14-17.06c-.14-.35-.21-.64-.21-.86,0-.52.18-.97.55-1.35.37-.38.81-.57,1.33-.57.35,0,.7.1,1.03.31s.56.47.7.8l5.91,15.01c.08.19.19.29.33.29s.25-.1.33-.29l5.91-15.01c.14-.33.37-.59.7-.8s.67-.31,1.03-.31c.52,0,.96.19,1.33.57.37.38.55.83.55,1.35,0,.22-.07.51-.21.86l-7.14,17.06c-.19.47-.5.84-.92,1.13-.42.29-.88.43-1.37.43h-.41c-.49,0-.95-.14-1.37-.43Z" fill="#2b2b2b" opacity=".62"/>
      <path d="M127.47,315.32c-.42-.42-.64-.92-.64-1.5v-.16c0-.57.21-1.07.64-1.5.42-.42.92-.64,1.5-.64h.25c.57,0,1.07.21,1.5.64.42.42.64.92.64,1.5v.16c0,.57-.21,1.07-.64,1.5-.42.42-.92.64-1.5.64h-.25c-.57,0-1.07-.21-1.5-.64ZM127.72,340.79c-.37-.37-.55-.81-.55-1.33v-17.6c0-.52.18-.97.55-1.35.37-.38.81-.57,1.33-.57.55,0,1,.18,1.37.55s.55.83.55,1.37v17.6c0,.52-.19.96-.57,1.33-.38.37-.83.55-1.35.55s-.96-.18-1.33-.55Z" fill="#2b2b2b" opacity=".62"/>
      <path d="M148.74,318.95c0-.79.72-1.41,2.17-1.85,5.8-1.83,10.53-4.59,14.19-8.29.52-.52.95-.9,1.29-1.15.34-.25.69-.37,1.05-.37.57,0,1.03.14,1.35.43s.49.64.49,1.05c0,.16-.11.44-.33.82,4.24,3.36,9.05,5.65,14.44,6.85,1.89.41,2.83,1.03,2.83,1.85,0,1.34-.6,2.01-1.8,2.01-1.61,0-4.17-.83-7.67-2.5-3.55-1.67-6.84-3.71-9.84-6.11-2.65,2.3-5.77,4.39-9.35,6.28-3.61,1.91-5.99,2.87-7.14,2.87s-1.68-.63-1.68-1.89ZM149.93,344.36c-.3-.29-.45-.73-.45-1.33,0-.66.25-1.11.74-1.35.25-.11.89-.25,1.93-.43,1.04-.18,2.27-.32,3.69-.43l11.53-1.93c.46-.08.83.02,1.09.31.26.29.39.7.39,1.25,0,.36-.11.66-.33.92-.22.26-.52.43-.9.51-.79.19-2.28.48-4.47.86-.16.03-.77.14-1.8.33l-9.97,1.72c-.66,0-1.13-.14-1.44-.43ZM158.75,318.54h17.51c1.48,0,2.55.32,3.22.96.67.64.95,1.68.84,3.1v6.64c0,1.45-.32,2.51-.96,3.18-.64.67-1.68.95-3.1.84h-18.38v7.71l-3.2.49v-18.87c-.19-2.93,1.16-4.28,4.06-4.06ZM177.12,324.32v-1.27c0-.63-.11-1.06-.33-1.29-.22-.23-.64-.35-1.27-.35h-16c-.63,0-1.06.12-1.29.35-.23.23-.35.66-.35,1.29v1.27h19.24ZM176.79,330.08c.22-.21.33-.62.33-1.25v-1.64h-19.24v3.2h17.64c.63,0,1.05-.1,1.27-.31ZM167.03,314.31c1.12,0,1.68.62,1.68,1.85v2.95h-3.36v-2.95c0-1.23.56-1.85,1.68-1.85ZM178.15,343.52c-6.1-2.08-10.24-5.65-12.43-10.71l2.99-.08c1.07,1.97,2.3,3.47,3.69,4.51h.04c3.58-1.61,6.41-3.21,8.49-4.8.6-.46,1.04-.7,1.31-.7.63,0,1.08.14,1.35.41.27.27.41.72.41,1.35,0,1.09-2.95,2.84-8.86,5.25v.16c2.68,1.37,5.56,2.21,8.65,2.54,1.59.16,2.38.71,2.38,1.64,0,1.18-.56,1.76-1.68,1.76-1.61,0-3.73-.45-6.36-1.35Z" fill="#2b2b2b" opacity=".62"/>
      <path d="M191.31,341.05c-.3-.33-.45-.78-.45-1.35,0-.74.49-1.37,1.48-1.89,1.26-.71,2.45-1.52,3.59-2.44,1.13-.92,2.59-2.17,4.37-3.75,2.87-2.54,5.18-5.35,6.93-8.41h1.44v3.08c-1.34,2.11-2.81,4.03-4.41,5.76-1.6,1.74-3.41,3.48-5.43,5.23-1.75,1.48-3.11,2.56-4.08,3.24-.97.68-1.68,1.03-2.11,1.03-.57,0-1.01-.16-1.31-.49ZM207.8,342.94v-18.79h-14.64c-1.37,0-2.05-.55-2.05-1.64s.68-1.64,2.05-1.64h32.61c1.34,0,2.01.55,2.01,1.64s-.67,1.64-2.01,1.64h-14.64v18.79c0,1.37-.56,2.05-1.68,2.05s-1.64-.68-1.64-2.05ZM200.09,318.58c-.68,0-1.2-.29-1.56-.86-1.09-1.83-2.17-3.57-3.24-5.21-.25-.41-.37-.78-.37-1.11,0-.52.25-.96.74-1.31.35-.22.68-.33.98-.33.6,0,1.12.31,1.56.94,1.59,2.19,2.72,3.87,3.4,5.04.22.38.33.75.33,1.11,0,.57-.29,1.05-.86,1.44-.3.19-.63.29-.98.29ZM209.48,307.75c1.09,0,1.64.7,1.64,2.09v11.69h-3.32v-11.69c0-1.39.56-2.09,1.68-2.09ZM222.44,339.66c-2.82-1.83-5.2-3.86-7.16-6.07-1.96-2.21-3.55-4.66-4.78-7.34l-.29-3.45,1.15-.08c1.7,3.45,3.77,6.37,6.23,8.78,2.46,2.41,5.36,4.39,8.7,5.95,1.2.55,1.8,1.22,1.8,2.01,0,.52-.16.97-.49,1.35s-.77.57-1.31.57c-.77,0-2.05-.57-3.86-1.72ZM216.82,316.98c0-.33.1-.64.29-.94,1.07-1.72,2.04-3.51,2.91-5.37.19-.38.44-.69.76-.92.31-.23.65-.35,1-.35.25,0,.48.06.7.16.79.33,1.19.85,1.19,1.56,0,.3-.06.56-.16.78-.44,1.01-.96,2.07-1.58,3.18s-1.18,2-1.7,2.69c-.44.63-1,.94-1.68.94-.36,0-.7-.12-1.03-.37-.47-.38-.7-.83-.7-1.35Z" fill="#2b2b2b" opacity=".62"/>
      <path d="M237.5,340.34c-.55-.53-.78-1.37-.7-2.52v-8.82c-1.09,2.38-1.98,3.57-2.67,3.57-.93,0-1.39-.6-1.39-1.8,0-.49.21-1.05.62-1.68,2.76-4.27,4.53-9.56,5.29-15.87h-3.65c-1.34,0-2.01-.52-2.01-1.56,0-1.12.67-1.68,2.01-1.68h10.66c1.34,0,2.01.56,2.01,1.68,0,1.04-.67,1.56-2.01,1.56h-3.73c-.71,3.45-1.54,6.55-2.5,9.31h3.98c1.23,0,2.12.27,2.67.8.55.53.78,1.37.7,2.52v11.98c0,1.18-.27,2.04-.8,2.58-.53.55-1.39.79-2.56.74h-3.28c-1.2,0-2.08-.27-2.62-.8ZM243.77,336.87v-10.17c0-.76-.4-1.15-1.19-1.15h-2.01c-.52,0-.81.27-.86.82v10.5c0,.77.41,1.18,1.23,1.23h1.64c.74,0,1.13-.41,1.19-1.23ZM262.19,342.86v-16.2h-6.44c-.27,5.41-1.34,9.74-3.2,12.96-1.78,3.12-3.32,4.68-4.63,4.68-1.07,0-1.6-.6-1.6-1.8,0-.52.35-1.11,1.07-1.76,3.25-3.23,5.04-7.92,5.37-14.07h-3.73c-.52,0-.9-.12-1.15-.37s-.37-.64-.37-1.19.12-.94.37-1.19.63-.37,1.15-.37h3.9v-10.46h-2.79c-1.01,0-1.52-.52-1.52-1.56,0-.55.12-.94.37-1.19s.63-.37,1.15-.37h18.17c.52,0,.91.12,1.17.37.26.25.39.66.39,1.23,0,1.01-.52,1.52-1.56,1.52h-3.04v10.46h3.28c1.04,0,1.56.52,1.56,1.56s-.52,1.56-1.56,1.56h-3.28v16.2c0,1.29-.52,1.93-1.56,1.93s-1.52-.64-1.52-1.93ZM262.19,323.54v-10.46h-6.15v2.58c0,2.54-.04,5.07-.12,7.59v.29h6.28Z" fill="#2b2b2b" opacity=".62"/>
      <path d="M275.39,342.74c0-.77.49-1.27,1.48-1.52,3.5-.85,6.19-2.15,8.08-3.9,1.89-1.78,3.06-4.05,3.53-6.81h-9.15c-.98,0-1.48-.52-1.48-1.56,0-.98.59-1.48,1.76-1.48h9.19c.11-1.31.16-2.39.16-3.24,0-.49.14-.89.43-1.19.29-.3.69-.45,1.21-.45,1.09,0,1.64.55,1.64,1.64,0,1.29-.06,2.35-.16,3.2h7.1c.98,0,1.73.27,2.24.82.51.55.76,1.33.76,2.34v8.49c0,.6.07,1.03.21,1.29.14.26.42.44.84.53.42.1,1.13.14,2.11.14,1.18,0,2-.12,2.46-.35.46-.23.76-.65.88-1.25.12-.6.2-1.7.23-3.28.03-1.07.57-1.6,1.64-1.6.49,0,.87.15,1.13.45.26.3.39.71.39,1.23.03,1.94-.04,3.38-.21,4.33s-.44,1.65-.82,2.11c-.68.79-2.21,1.22-4.59,1.27h-1.39c-1.59,0-2.81-.08-3.67-.25s-1.51-.49-1.95-.96c-.44-.48-.66-1.2-.66-2.15v-9.11c0-.33-.09-.59-.27-.78-.18-.19-.43-.29-.76-.29h-5.99c-.47,2.98-1.42,5.44-2.87,7.38-1.48,1.97-3.54,3.57-6.19,4.8-2.49,1.15-4.42,1.72-5.78,1.72-1.01,0-1.52-.53-1.52-1.6ZM279.35,324.4c-.23-.25-.35-.57-.35-.98,0-.44.12-.77.37-1,.25-.23.66-.42,1.23-.55,2.71-.63,4.54-1.78,5.5-3.45.3-.49.53-1.1.7-1.83.16-.72.27-1.46.33-2.19h-6.52c-1.09,0-1.63.55-1.6,1.64v3.28c0,1.39-.57,2.09-1.72,2.09s-1.72-.7-1.72-2.09v-4.22c0-2.49,1.24-3.73,3.73-3.73h12.1v-1.85c0-1.2.63-1.8,1.89-1.8s1.8.6,1.8,1.8v1.85h12.55c2.49,0,3.73,1.25,3.73,3.73v3.98c0,1.37-.57,2.05-1.72,2.05s-1.68-.68-1.68-2.05v-3.04c0-1.12-.55-1.67-1.64-1.64h-8.2v5.25c0,.49.06.85.18,1.07.12.22.37.36.74.43.37.07.96.1,1.78.1.98,0,1.7-.05,2.15-.16.45-.11.75-.29.9-.55.15-.26.24-.69.27-1.29.03-.41.17-.74.43-.98.26-.25.64-.37,1.13-.37.44,0,.78.14,1.03.41.25.27.37.64.37,1.11,0,1.37-.18,2.37-.55,3.01-.37.64-.96,1.05-1.78,1.21-1.15.22-2.57.33-4.27.33-.9,0-1.71-.04-2.42-.12-1.23-.14-2.06-.4-2.5-.8-.44-.4-.66-1.14-.66-2.24v-6.4h-4.59c-.16,2.16-.67,4.01-1.52,5.54-.82,1.42-2.15,2.61-3.98,3.57-1.61.85-3.09,1.27-4.43,1.27-.47,0-.81-.12-1.05-.37Z" fill="#2b2b2b" opacity=".62"/>
    </g>
    <g>
      <path d="M59.96,280.13v-36.66h4.32v32.92h18.51v3.74h-22.83Z" fill="#2b2b2b" opacity=".62"/>
      <path d="M99.17,280.6c-4.09,0-7.31-1.19-9.67-3.56-2.36-2.37-3.54-5.68-3.54-9.91,0-2.74.52-5.12,1.56-7.15s2.5-3.6,4.37-4.73,4.02-1.69,6.45-1.69,4.4.5,6.03,1.51c1.63,1.01,2.88,2.44,3.74,4.29.87,1.86,1.3,4.05,1.3,6.58v1.56h-20.23v-2.65h17.47l-.88.68c0-2.77-.62-4.94-1.87-6.5-1.25-1.56-3.1-2.34-5.56-2.34-2.6,0-4.63.91-6.08,2.73-1.46,1.82-2.18,4.27-2.18,7.36v.47c0,3.26.81,5.73,2.42,7.41,1.61,1.68,3.87,2.52,6.79,2.52,1.56,0,3.02-.23,4.39-.7,1.37-.47,2.68-1.24,3.93-2.31l1.46,2.96c-1.14,1.11-2.59,1.97-4.34,2.57-1.75.61-3.6.91-5.54.91Z" fill="#2b2b2b" opacity=".62"/>
      <path d="M123.25,280.13l-11.18-26.1h4.58l9.36,22.98h-1.4l9.46-22.98h4.37l-11.18,26.1h-4Z" fill="#2b2b2b" opacity=".62"/>
      <path d="M142.64,248.1v-4.73h5.2v4.73h-5.2ZM143.16,280.13v-26.1h4.21v26.1h-4.21Z" fill="#2b2b2b" opacity=".62"/>
      <path d="M169.58,280.13v-36.66h14.98c3.85,0,6.83.91,8.94,2.73,2.11,1.82,3.17,4.36,3.17,7.62,0,2.15-.48,3.98-1.43,5.49-.95,1.51-2.29,2.66-4,3.46-1.72.8-3.72,1.2-6.01,1.2l.94-.68h1.04c1.42,0,2.69.35,3.82,1.04,1.13.69,2.02,1.86,2.68,3.48l5.2,12.32h-4.73l-4.99-12.12c-.59-1.56-1.47-2.57-2.65-3.04-1.18-.47-2.65-.7-4.42-.7h-8.22v15.86h-4.32ZM173.89,260.89h10.04c2.77,0,4.88-.6,6.32-1.79,1.44-1.2,2.16-2.92,2.16-5.17s-.72-3.97-2.16-5.15c-1.44-1.18-3.54-1.77-6.32-1.77h-10.04v13.88Z" fill="#2b2b2b" opacity=".62"/>
      <path d="M204.57,248.1v-4.73h5.2v4.73h-5.2ZM205.09,280.13v-26.1h4.21v26.1h-4.21Z" fill="#2b2b2b" opacity=".62"/>
      <path d="M228.44,280.6c-2.57,0-4.79-.55-6.68-1.66-1.89-1.11-3.35-2.69-4.37-4.73-1.02-2.04-1.53-4.47-1.53-7.28s.52-5.26,1.56-7.25,2.5-3.51,4.39-4.55c1.89-1.04,4.1-1.56,6.63-1.56,1.66,0,3.28.29,4.86.88,1.58.59,2.89,1.42,3.93,2.5l-1.51,3.02c-1.04-1.01-2.18-1.75-3.41-2.24-1.23-.49-2.44-.73-3.61-.73-2.7,0-4.8.85-6.29,2.55-1.49,1.7-2.24,4.18-2.24,7.44s.75,5.72,2.24,7.49c1.49,1.77,3.59,2.65,6.29,2.65,1.14,0,2.33-.22,3.56-.68,1.23-.45,2.38-1.2,3.46-2.24l1.51,2.96c-1.08,1.11-2.41,1.96-4,2.55-1.59.59-3.19.88-4.78.88Z" fill="#2b2b2b" opacity=".62"/>
      <path d="M254.28,280.6c-4.09,0-7.31-1.19-9.67-3.56-2.36-2.37-3.54-5.68-3.54-9.91,0-2.74.52-5.12,1.56-7.15s2.5-3.6,4.37-4.73,4.02-1.69,6.45-1.69,4.4.5,6.03,1.51c1.63,1.01,2.88,2.44,3.74,4.29.87,1.86,1.3,4.05,1.3,6.58v1.56h-20.23v-2.65h17.47l-.88.68c0-2.77-.62-4.94-1.87-6.5-1.25-1.56-3.1-2.34-5.56-2.34-2.6,0-4.63.91-6.08,2.73-1.46,1.82-2.18,4.27-2.18,7.36v.47c0,3.26.81,5.73,2.42,7.41,1.61,1.68,3.87,2.52,6.79,2.52,1.56,0,3.02-.23,4.39-.7,1.37-.47,2.68-1.24,3.93-2.31l1.46,2.96c-1.14,1.11-2.59,1.97-4.34,2.57-1.75.61-3.6.91-5.54.91Z" fill="#2b2b2b" opacity=".62"/>
      <path d="M283.66,261.77c0-3.88.67-7.22,2-10.01,1.33-2.79,3.26-4.95,5.77-6.47,2.51-1.53,5.54-2.29,9.07-2.29s6.41.76,8.94,2.29c2.53,1.53,4.48,3.68,5.85,6.47,1.37,2.79,2.05,6.11,2.05,9.96s-.69,7.23-2.08,10.04c-1.39,2.81-3.34,4.98-5.85,6.53-2.51,1.54-5.49,2.31-8.92,2.31s-6.55-.77-9.05-2.31c-2.5-1.54-4.42-3.72-5.77-6.53-1.35-2.81-2.03-6.14-2.03-9.98ZM288.19,261.77c0,4.71,1.04,8.4,3.12,11.05,2.08,2.65,5.15,3.98,9.2,3.98s6.91-1.33,9.07-3.98c2.17-2.65,3.25-6.33,3.25-11.05s-1.07-8.43-3.22-11.05c-2.15-2.62-5.18-3.93-9.1-3.93s-7.12,1.31-9.2,3.93c-2.08,2.62-3.12,6.3-3.12,11.05ZM310.39,290.06c-1.01-.66-2.05-1.51-3.12-2.55-1.08-1.04-2.09-2.2-3.04-3.48-.95-1.28-1.78-2.57-2.47-3.85l3.8-1.4c.9,1.8,2.06,3.44,3.48,4.91,1.42,1.47,2.86,2.75,4.32,3.82l-2.96,2.55Z" fill="#2b2b2b" opacity=".62"/>
      <path d="M333.89,280.6c-3.09,0-5.42-.85-6.99-2.55-1.58-1.7-2.37-4.3-2.37-7.8v-16.22h4.21v16.12c0,2.39.48,4.15,1.46,5.28.97,1.13,2.48,1.69,4.52,1.69,2.29,0,4.12-.75,5.51-2.24,1.39-1.49,2.08-3.48,2.08-5.98v-14.87h4.21v26.1h-4.11v-5.88h.68c-.73,2.01-1.9,3.57-3.51,4.68-1.61,1.11-3.51,1.66-5.69,1.66Z" fill="#2b2b2b" opacity=".62"/>
      <path d="M364.63,280.6c-2.32,0-4.35-.55-6.08-1.64-1.73-1.09-3.08-2.64-4.03-4.65-.95-2.01-1.43-4.42-1.43-7.23s.48-5.27,1.43-7.28c.95-2.01,2.3-3.55,4.03-4.63,1.73-1.07,3.76-1.61,6.08-1.61s4.39.6,6.11,1.79c1.72,1.2,2.85,2.82,3.41,4.86h-.62l.57-6.19h4.06c-.1,1.01-.2,2.02-.29,3.04-.09,1.02-.13,2.02-.13,2.99v20.07h-4.21v-6.14h.57c-.55,2.05-1.7,3.66-3.43,4.84-1.73,1.18-3.74,1.77-6.03,1.77ZM365.46,277.16c2.5,0,4.47-.86,5.93-2.57,1.46-1.72,2.18-4.22,2.18-7.51s-.73-5.85-2.18-7.57c-1.46-1.72-3.43-2.57-5.93-2.57s-4.43.86-5.9,2.57c-1.47,1.72-2.21,4.24-2.21,7.57s.74,5.8,2.21,7.51c1.47,1.72,3.44,2.57,5.9,2.57Z" fill="#2b2b2b" opacity=".62"/>
      <path d="M385.89,280.13v-38.27h4.21v38.27h-4.21Z" fill="#2b2b2b" opacity=".62"/>
      <path d="M397.75,248.1v-4.73h5.2v4.73h-5.2ZM398.27,280.13v-26.1h4.21v26.1h-4.21Z" fill="#2b2b2b" opacity=".62"/>
      <path d="M419.9,280.6c-2.57,0-4.52-.74-5.88-2.21-1.35-1.47-2.03-3.7-2.03-6.68v-14.4h-5.1v-3.28h5.1v-7.12l4.21-1.2v8.32h7.49v3.28h-7.49v13.94c0,2.08.35,3.56,1.07,4.45.71.88,1.78,1.33,3.2,1.33.66,0,1.25-.06,1.77-.18s.99-.27,1.4-.44v3.54c-.49.21-1.07.37-1.74.49-.68.12-1.34.18-2,.18Z" fill="#2b2b2b" opacity=".62"/>
      <path d="M428.12,291.93l-.99-3.48c1.63-.38,2.99-.82,4.08-1.33,1.09-.5,2-1.17,2.73-2s1.35-1.87,1.87-3.12l1.35-3.07-.1,1.77-11.39-26.68h4.58l9.41,22.93h-1.35l9.31-22.93h4.42l-12.06,28.29c-.69,1.66-1.46,3.06-2.29,4.19-.83,1.13-1.73,2.04-2.68,2.76-.95.71-2,1.27-3.15,1.69s-2.39.75-3.74.99Z" fill="#2b2b2b" opacity=".62"/>
      <path d="M470.81,280.13v-36.66h4.32v32.92h18.51v3.74h-22.83Z" fill="#2b2b2b" opacity=".62"/>
      <path d="M508.61,280.6c-2.32,0-4.35-.55-6.08-1.64-1.73-1.09-3.08-2.64-4.03-4.65-.95-2.01-1.43-4.42-1.43-7.23s.48-5.27,1.43-7.28c.95-2.01,2.3-3.55,4.03-4.63,1.73-1.07,3.76-1.61,6.08-1.61s4.39.6,6.11,1.79c1.72,1.2,2.85,2.82,3.41,4.86h-.62l.57-6.19h4.06c-.1,1.01-.2,2.02-.29,3.04-.09,1.02-.13,2.02-.13,2.99v20.07h-4.21v-6.14h.57c-.55,2.05-1.7,3.66-3.43,4.84-1.73,1.18-3.74,1.77-6.03,1.77ZM509.44,277.16c2.5,0,4.47-.86,5.93-2.57s2.18-4.22,2.18-7.51-.73-5.85-2.18-7.57-3.43-2.57-5.93-2.57-4.43.86-5.9,2.57-2.21,4.24-2.21,7.57.74,5.8,2.21,7.51,3.44,2.57,5.9,2.57Z" fill="#2b2b2b" opacity=".62"/>
      <path d="M542.98,280.6c-2.36,0-4.39-.6-6.08-1.79-1.7-1.2-2.84-2.83-3.43-4.91h.57v6.24h-4.16v-38.27h4.21v18.25h-.62c.59-2.01,1.73-3.6,3.43-4.78,1.7-1.18,3.73-1.77,6.08-1.77s4.39.55,6.11,1.64c1.72,1.09,3.05,2.64,4,4.65.95,2.01,1.43,4.42,1.43,7.23s-.49,5.22-1.46,7.23c-.97,2.01-2.31,3.56-4.03,4.65-1.72,1.09-3.74,1.64-6.06,1.64ZM542.1,277.16c2.46,0,4.44-.85,5.93-2.55,1.49-1.7,2.24-4.21,2.24-7.54s-.75-5.85-2.24-7.57c-1.49-1.72-3.47-2.57-5.93-2.57s-4.43.86-5.9,2.57-2.21,4.24-2.21,7.57.74,5.8,2.21,7.51,3.44,2.57,5.9,2.57Z" fill="#2b2b2b" opacity=".62"/>
    </g>
  </g>
  <g>
    <g clip-path="url(#clippath-1)">
      <g clip-path="url(#clippath-2)">
        <path d="M757.24,253.67c-1.09-.23-2.21-.33-3.35-.36-34.52-4.46-62.7-31.8-67.77-67.11l-.35-1.72v-2.41l-.35-2.05v-3.09c-.3-1.83-.27-3.65,0-5.48v-3.09l.35-2.05c0-.46-.02-.91,0-1.37.25-.76.35-1.57.35-2.38,4.32-30.23,26.27-56,54.95-64.62,3.7-1.12,7.98-2.26,11.8-2.49l2.34-.35h1.69l2.68-.33c.8,0,3.5-.25,3.68.33l-.15,38.93c-.35.28-.84.43-1.52.46-.92.51-2.04.74-3.35.68-17.35,3.55-30.22,14.33-33.2,32.87-.25.53-.35,1.09-.35,1.72-.02.33,0,.68,0,1.01-.3,2.38-.35,4.82,0,7.2,2.11,19.81,15.63,32.54,34.57,35.61l3.35.36h.35c.1-.3.2-.3.32,0,.3.05.3.18,0,.36-.2,12.93-.27,25.97-.17,39.13l-2.83.25h-.35c-.84.05-1.81.03-2.68,0h0Z" fill="#7fcae5" opacity=".7"/>
      </g>
    </g>
    <g clip-path="url(#clippath-3)">
      <g clip-path="url(#clippath-5)">
        <g clip-path="url(#clippath-6)">
          <path d="M773.35,258.42c1.09.23,2.21.33,3.35.36,34.52,4.46,62.7,31.81,67.77,67.12l.35,1.73v2.41l.35,2.05v3.09c.3,1.83.27,3.65,0,5.48v3.09l-.35,2.05c0,.46.02.91,0,1.37-.25.76-.35,1.57-.35,2.38-4.32,30.24-26.27,56.01-54.95,64.63-3.7,1.12-7.98,2.26-11.8,2.49l-2.34.36h-1.69l-2.68.33c-.8,0-3.5.25-3.68-.33l.15-38.94c.35-.28.84-.43,1.52-.46.92-.51,2.04-.74,3.35-.68,17.35-3.55,30.22-14.33,33.2-32.88.25-.53.35-1.09.35-1.72.02-.33,0-.68,0-1.01.3-2.38.35-4.82,0-7.2-2.11-19.81-15.63-32.55-34.57-35.61l-3.35-.36h-.35c-.1.3-.2.3-.32,0-.3-.05-.3-.18,0-.36.2-12.94.27-25.98.17-39.14l2.83-.25h.35c.84-.05,1.81-.03,2.68,0h0Z" fill="#c3c2c1" opacity=".7"/>
        </g>
      </g>
      <g clip-path="url(#clippath-7)">
        <g clip-path="url(#clippath-9)">
          <g clip-path="url(#clippath-10)">
            <path d="M832.43,229.69c.52.99,1.15,1.92,1.86,2.82,18.48,29.49,15.26,68.62-8.78,94.96l-1.11,1.36c-.61.5-1.23,1.02-1.86,1.53l-1.37,1.57c-.78.64-1.59,1.31-2.39,1.97-1.22,1.39-2.65,2.53-4.23,3.48-.78.64-1.59,1.3-2.39,1.97l-1.81,1.04c-.35.29-.69.6-1.06.87-.75.29-1.44.73-2.06,1.25-26.1,15.87-59.93,15.29-84.81-1.37-3.21-2.15-6.81-4.73-9.42-7.54l-1.76-1.58c-.35-.42-.71-.86-1.07-1.3l-1.96-1.86c-.51-.61-2.42-2.54-2.08-3.05l30.16-24.62c.44.09.87.38,1.32.88.98.39,1.86,1.11,2.66,2.16,13.76,11.14,30.26,14.23,46.47,4.75.57-.15,1.06-.42,1.55-.83.27-.19.53-.44.78-.64,2.03-1.28,3.94-2.79,5.56-4.58,13.96-14.22,15.2-32.74,5.54-49.31l-1.86-2.82s-.14-.17-.22-.27c-.3.12-.36.04-.21-.25-.15-.26-.05-.34.27-.23,10.12-8.06,20.23-16.29,30.33-24.73l2,2.03.22.27c.58.62,1.17,1.38,1.7,2.07h0Z" fill="#c1e3e0" opacity=".7"/>
          </g>
        </g>
        <g clip-path="url(#clippath-11)">
          <g clip-path="url(#clippath-13)">
            <g clip-path="url(#clippath-14)">
              <path d="M842.83,61.15c-.23,1.09-.33,2.21-.36,3.35-4.46,34.52-31.81,62.7-67.12,67.77l-1.72.35h-2.41l-2.05.35h-3.09c-1.83.3-3.65.27-5.48,0h-3.09l-2.05-.35c-.46,0-.91.03-1.37,0-.76-.25-1.57-.35-2.38-.35-30.24-4.32-56.01-26.27-64.63-54.95-1.12-3.7-2.26-7.98-2.49-11.8l-.36-2.34v-1.69l-.33-2.68c0-.8-.25-3.5.33-3.68l38.94.15c.28.35.43.84.46,1.52.51.92.74,2.04.68,3.35,3.55,17.35,14.33,30.22,32.88,33.2.53.25,1.09.35,1.72.35.33.02.68,0,1.01,0,2.38.3,4.82.35,7.2,0,19.81-2.11,32.55-15.63,35.61-34.57l.36-3.36v-.35c-.3-.1-.3-.2,0-.32.05-.3.18-.3.36,0,12.94.2,25.98.27,39.14.17l.25,2.83v.35c.05.84.03,1.81,0,2.68h0Z" fill="#ed8181" opacity=".7"/>
            </g>
          </g>
        </g>
      </g>
    </g>
  </g>
</svg>