<svg width="17676" height="8839" xmlns="http://www.w3.org/2000/svg" xmlns:xlink="http://www.w3.org/1999/xlink" xml:space="preserve" overflow="hidden"><defs><clipPath id="clip0"><path d="M7828.9 980.812 8677.1 2011.92 6581.62 3735.67 5733.42 2704.56Z" fill-rule="evenodd" clip-rule="evenodd"/></clipPath><clipPath id="clip1"><path d="M7828.9 980.812 8677.1 2011.92 6581.62 3735.67 5733.42 2704.56Z" fill-rule="evenodd" clip-rule="evenodd"/></clipPath><clipPath id="clip2"><path d="M7828.9 980.812 8677.1 2011.92 6581.62 3735.67 5733.42 2704.56Z" fill-rule="evenodd" clip-rule="evenodd"/></clipPath></defs><g transform="translate(5633 3182)"><rect x="-5633" y="-3182" width="17676" height="8839" fill="#F9F6EF"/><text fill="#3E3F40" fill-opacity="0.619608" font-family="Mulish ExtraLight,Mulish ExtraLight_MSFontService,sans-serif" font-weight="200" font-size="912" transform="matrix(1 0 0 1 -3055.53 1987)">Palate </text><text fill="#3E3F40" fill-opacity="0.619608" font-family="Mulish ExtraLight,Mulish ExtraLight_MSFontService,sans-serif" font-weight="200" font-size="912" transform="matrix(1 0 0 1 -194.389 1987)">&amp;</text><text fill="#3E3F40" fill-opacity="0.619608" font-family="Mulish ExtraLight,Mulish ExtraLight_MSFontService,sans-serif" font-weight="200" font-size="912" transform="matrix(1 0 0 1 -3055.53 3082)">Grain</text><text fill="#3E3F40" fill-opacity="0.619608" font-family="Mulish ExtraLight,Mulish ExtraLight_MSFontService,sans-serif" font-weight="200" font-size="912" transform="matrix(1 0 0 1 -611.473 3082)">Lab</text><text fill="#3E3F40" font-family="jf-openhuninn-2.1,jf-openhuninn-2.1_MSFontService,sans-serif" font-weight="400" font-size="1315" transform="matrix(1 0 0 1 -3101.49 530)">食米研所</text><g><g><g><path d="M106.834 0.423944C125.487 4.23944 144.565 5.93522 164.066 6.35916 752.925 80.9733 1233.68 537.985 1320.16 1128.12L1326.1 1156.94C1326.1 1170.09 1326.1 1183.65 1326.1 1197.22L1332.03 1231.56C1332.03 1248.52 1332.03 1265.9 1332.03 1283.28 1337.12 1313.8 1336.7 1344.33 1332.03 1374.85 1332.03 1391.81 1332.03 1409.19 1332.03 1426.57L1326.1 1460.91C1326.1 1468.54 1326.52 1476.17 1326.1 1483.8 1321.86 1496.52 1320.16 1510.09 1320.16 1523.66 1246.4 2029 872.053 2459.72 382.822 2603.86 319.654 2622.52 246.736 2641.6 181.448 2645.41L141.597 2651.35C132.271 2651.35 122.52 2651.35 112.769 2651.35L66.9832 2656.86C53.417 2656.86 7.20705 2661.1 4.23944 2651.35L6.78311 2000.59C12.7183 1995.93 21.1972 1993.39 32.6437 1992.96 48.3296 1984.48 67.4071 1980.67 89.8762 1981.52 385.789 1922.16 605.392 1741.99 656.266 1432.08 660.505 1423.18 662.201 1413.85 662.201 1403.26 662.625 1397.74 662.201 1391.81 662.201 1386.3 667.288 1346.45 668.136 1305.75 662.201 1265.9 626.166 934.797 395.54 721.977 72.4945 670.68L15.262 664.744C15.262 664.744 11.4465 664.744 9.32677 664.744 7.631 669.832 5.93522 669.832 3.8155 664.744-1.27183 663.897-1.27183 661.777 3.8155 658.809 7.20705 442.598 8.47888 224.69 6.78311 4.66339L55.1127 0.423944 61.048 0.423944C75.4621-0.423944 91.9959 0 106.834 0.423944Z" fill="#7FCAE5" fill-opacity="0.7" transform="matrix(-1 1.22465e-16 -1.22507e-16 -1.00034 6775 1573.89)"/></g></g></g><g><g><g><path d="M106.831 0.423934C125.484 4.23934 144.562 5.93508 164.062 6.35901 752.907 80.9714 1233.65 537.972 1320.13 1128.09L1326.07 1156.92C1326.07 1170.06 1326.07 1183.62 1326.07 1197.19L1332 1231.53C1332 1248.49 1332 1265.87 1332 1283.25 1337.09 1313.77 1336.66 1344.29 1332 1374.82 1332 1391.78 1332 1409.16 1332 1426.54L1326.07 1460.88C1326.07 1468.51 1326.49 1476.14 1326.07 1483.77 1321.83 1496.49 1320.13 1510.05 1320.13 1523.62 1246.37 2028.95 872.032 2459.67 382.812 2603.8 319.646 2622.46 246.73 2641.53 181.444 2645.35L141.594 2651.28C132.267 2651.28 122.517 2651.28 112.766 2651.28L66.9816 2656.79C53.4157 2656.79 7.20688 2661.03 4.23934 2651.28L6.78294 2000.54C12.718 1995.88 21.1967 1993.34 32.6429 1992.91 48.3285 1984.44 67.4055 1980.62 89.874 1981.47 385.78 1922.12 605.378 1741.94 656.25 1432.05 660.489 1423.15 662.185 1413.82 662.185 1403.22 662.609 1397.71 662.185 1391.78 662.185 1386.26 667.272 1346.41 668.12 1305.72 662.185 1265.87 626.151 934.774 395.53 721.96 72.4927 670.664L15.2616 664.729C15.2616 664.729 11.4462 664.729 9.32655 664.729 7.63081 669.816 5.93508 669.816 3.81541 664.729-1.2718 663.881-1.2718 661.761 3.81541 658.793 7.20688 442.587 8.47868 224.685 6.78294 4.66327L55.1114 0.423934 61.0465 0.423934C75.4603-0.423934 91.9937 0 106.831 0.423934Z" fill="#C3C2C1" fill-opacity="0.7" transform="matrix(1.00002 0 0 1 6751 1567.1)"/></g></g></g><g clip-path="url(#clip0)"><g clip-path="url(#clip1)"><g clip-path="url(#clip2)"><path d="M106.846 0.423991C125.501 4.23991 144.581 5.93587 164.085 6.35986 753.008 80.9823 1233.81 538.045 1320.31 1128.24L1326.24 1157.07C1326.24 1170.22 1326.24 1183.78 1326.24 1197.35L1332.18 1231.69C1332.18 1248.65 1332.18 1266.04 1332.18 1283.42 1337.27 1313.95 1336.84 1344.48 1332.18 1375 1332.18 1391.96 1332.18 1409.35 1332.18 1426.73L1326.24 1461.07C1326.24 1468.7 1326.67 1476.34 1326.24 1483.97 1322 1496.69 1320.31 1510.26 1320.31 1523.82 1246.53 2029.22 872.149 2460 382.864 2604.15 319.689 2622.81 246.763 2641.89 181.468 2645.7L141.613 2651.64C132.285 2651.64 122.533 2651.64 112.782 2651.64L66.9906 2657.15C53.4229 2657.15 7.20785 2661.39 4.23991 2651.64L6.78386 2000.81C12.7197 1996.15 21.1995 1993.61 32.6473 1993.18 48.335 1984.7 67.4146 1980.89 89.8861 1981.73 385.832 1922.38 605.459 1742.18 656.338 1432.24 660.578 1423.34 662.274 1414.01 662.274 1403.41 662.698 1397.9 662.274 1391.96 662.274 1386.45 667.362 1346.6 668.21 1305.89 662.274 1266.04 626.235 934.9 395.584 722.057 72.5025 670.754L15.2637 664.818C15.2637 664.818 11.4478 664.818 9.3278 664.818 7.63184 669.906 5.93587 669.906 3.81592 664.818-1.27197 663.97-1.27197 661.85 3.81592 658.882 7.20785 442.647 8.47982 224.715 6.78386 4.6639L55.1188 0.423991 61.0547 0.423991C75.4704-0.423991 92.006 0 106.846 0.423991Z" fill="#C1E3E0" fill-opacity="0.7" transform="matrix(0.635281 0.772281 -0.772281 0.635281 7807.2 998.667)"/></g></g></g><g><g><g><path d="M106.831 0.423934C125.484 4.23934 144.562 5.93508 164.062 6.35901 752.907 80.9714 1233.65 537.972 1320.13 1128.09L1326.07 1156.92C1326.07 1170.06 1326.07 1183.62 1326.07 1197.19L1332 1231.53C1332 1248.49 1332 1265.87 1332 1283.25 1337.09 1313.77 1336.66 1344.29 1332 1374.82 1332 1391.78 1332 1409.16 1332 1426.54L1326.07 1460.88C1326.07 1468.51 1326.49 1476.14 1326.07 1483.77 1321.83 1496.49 1320.13 1510.05 1320.13 1523.62 1246.37 2028.95 872.032 2459.67 382.812 2603.8 319.646 2622.46 246.73 2641.53 181.444 2645.35L141.594 2651.28C132.267 2651.28 122.517 2651.28 112.766 2651.28L66.9816 2656.79C53.4157 2656.79 7.20688 2661.03 4.23934 2651.28L6.78294 2000.54C12.718 1995.88 21.1967 1993.34 32.6429 1992.91 48.3285 1984.44 67.4055 1980.62 89.874 1981.47 385.78 1922.12 605.378 1741.94 656.25 1432.05 660.489 1423.15 662.185 1413.82 662.185 1403.22 662.609 1397.71 662.185 1391.78 662.185 1386.26 667.272 1346.41 668.12 1305.72 662.185 1265.87 626.151 934.774 395.53 721.96 72.4927 670.664L15.2616 664.729C15.2616 664.729 11.4462 664.729 9.32655 664.729 7.63081 669.816 5.93508 669.816 3.81541 664.729-1.2718 663.881-1.2718 661.761 3.81541 658.793 7.20688 442.587 8.47868 224.685 6.78294 4.66327L55.1114 0.423934 61.0465 0.423934C75.4603-0.423934 91.9937 0 106.831 0.423934Z" fill="#ED8181" fill-opacity="0.491373" transform="matrix(6.12338e-17 1.00002 -1 6.12323e-17 8078.9 -1777)"/></g></g></g></g></svg>